<svg width="680" height="589" xmlns="http://www.w3.org/2000/svg" xmlns:xlink="http://www.w3.org/1999/xlink" xml:space="preserve" overflow="hidden"><g transform="translate(-2351 -383)"><path d="M255.479 487.78C227.933 432.741 205.437 384.124 205.896 379.996 207.273 371.74 202.682 369.447 175.136 364.401 166.413 363.025 149.885 358.439 138.407 355.228 126.93 351.559 104.433 345.596 87.9054 341.468 71.3777 337.34 44.7496 329.543 28.6809 324.498L-0.24289 315.325 2.97099 211.209C4.80728 154.336 7.56208 106.177 9.39838 104.801 10.7756 102.966 41.0766 91.9581 76.4278 80.033 111.779 68.5666 147.13 55.7241 154.476 52.5135 162.281 48.8442 176.972 44.2577 186.613 41.5057 218.292 33.7085 249.97 24.0767 283.025 11.6929 300.471 5.27168 319.754-0.232218 325.722-0.232218 334.904-0.232218 362.451 12.6102 436.826 50.6789 445.549 55.2655 469.881 67.6492 490.541 78.1984 511.201 88.7475 531.402 100.673 535.075 104.801 541.043 111.222 542.42 129.568 543.338 202.036 544.716 281.843 545.634 291.016 552.52 289.64 561.244 288.264 565.835 295.144 619.55 394.214 642.046 435.952 665.461 478.607 671.429 489.156 682.906 509.337 681.988 514.841 660.869 546.489 656.278 552.91 652.606 561.624 652.606 565.294 652.606 569.422 648.474 572.174 642.505 571.715 628.732 571.256 472.177 577.677 446.008 579.971 434.53 580.888 398.72 583.181 365.664 584.557L305.981 587.768 255.479 487.78ZM495.591 548.323C554.357 545.113 603.481 540.985 605.318 539.15 611.286 533.646 597.972 525.849 582.821 526.308 574.558 526.766 535.534 529.06 496.509 531.812 457.486 534.564 403.77 537.774 377.142 539.609L328.936 542.361 295.881 476.314C259.611 402.47 252.265 391.462 244.92 396.049 241.247 398.342 252.724 424.944 279.812 476.773L319.754 554.745 354.187 554.745C373.01 554.286 436.826 551.534 495.591 548.323ZM367.96 433.2C361.532 426.779 347.759 422.651 329.854 422.192 325.263 421.734 322.509 419.899 323.886 417.606 327.559 412.102 352.351 414.854 361.073 421.734 366.583 426.32 370.256 426.779 378.52 422.192 386.783 417.606 391.833 418.064 402.393 422.651L416.166 428.155 398.72 429.989C389.538 430.907 382.651 433.2 384.029 435.952 388.62 442.832 402.852 440.539 413.87 431.824L423.971 423.568 412.034 409.808C401.934 398.342 399.638 397.425 395.047 403.387 391.374 408.432 389.538 408.891 387.701 404.305 384.488 396.507 373.01 385.041 367.501 385.041 365.205 385.041 362.451 390.086 360.614 396.507 357.4 409.35 343.627 412.56 345.923 400.177 348.219 387.793 331.691 387.334 319.295 399.259 313.326 404.763 308.276 412.102 308.276 414.854 308.276 424.944 324.345 434.576 342.709 436.869 352.81 437.787 364.287 438.704 367.96 439.163 373.469 440.08 373.469 439.163 367.96 433.2ZM422.594 364.86C460.24 341.01 471.259 312.114 445.549 302.941 426.726 296.52 423.053 296.52 423.053 304.317 423.053 307.528 419.839 313.032 416.166 316.242 410.198 321.287 409.28 319.911 409.28 307.528 409.28 292.392 399.638 285.512 367.042 277.256 356.482 274.504 354.646 275.88 353.269 285.971 350.973 303.858 343.168 300.648 340.414 280.925 338.118 265.331 336.741 263.496 324.345 263.496 311.949 263.496 310.572 264.872 309.194 280.925 307.358 300.648 300.471 303.858 298.176 285.512 297.258 275.422 294.503 272.67 285.321 272.67 275.221 272.67 273.843 274.504 274.302 286.888 275.221 305.693 286.239 328.167 307.817 352.935 325.722 373.116 325.722 373.574 335.363 364.86 342.25 358.439 348.678 357.063 359.237 359.356 375.765 362.567 385.865 353.393 386.324 335.964 386.324 321.746 391.374 311.197 395.965 314.407 398.261 315.783 399.179 326.791 397.343 339.175 394.588 360.273 396.884 375.868 402.393 375.868 403.77 375.868 412.952 370.822 422.594 364.86ZM250.888 325.415C250.888 318.077 248.592 314.407 244.461 315.325 240.788 316.242 236.197 313.949 234.36 310.738 227.933 300.648 229.769 296.978 239.411 300.189 246.297 302.482 249.97 300.189 254.102 291.475 256.856 284.595 258.234 278.173 256.397 276.797 254.102 274.504 184.318 286.888 182.022 290.099 181.563 290.557 179.727 298.813 178.349 308.445 175.595 325.874 176.054 326.333 187.073 323.581 193.959 321.746 201.764 322.663 205.437 325.874 209.109 329.085 213.242 330.002 214.619 328.626 216.455 327.25 220.587 329.085 224.26 332.754 235.278 343.303 250.888 339.175 250.888 325.415ZM64.0321 317.618C59.441 316.701 55.7681 313.949 55.7681 311.656 55.7681 307.069 63.573 304.776 90.2011 300.189 100.301 298.813 141.621 290.099 182.022 280.925 222.423 271.752 267.875 261.662 283.025 258.451 298.176 255.241 316.999 252.489 324.345 252.489 339.495 252.489 386.783 267.166 431.317 285.971 447.385 292.851 462.995 297.437 465.29 296.978 471.259 294.685 451.058 286.429 384.029 261.662L333.527 243.315 294.503 249.737C272.925 253.865 243.083 259.827 227.933 263.496 212.782 267.166 184.777 273.128 165.953 276.797 39.2403 302.024 13.9895 310.28 44.2905 316.701 60.3592 320.37 76.4278 320.829 64.0321 317.618ZM37.404 267.624C37.404 253.865 38.3222 242.857 39.2403 242.857 40.1585 242.857 53.4727 240.105 68.1641 236.436 82.8552 232.766 100.301 228.638 107.647 227.262 115.911 225.428 120.043 221.3 120.043 215.337 120.043 202.036 113.156 200.66 88.3645 207.999 74.5915 212.127 60.3592 213.503 53.0136 211.209 41.5357 208.457 40.1585 205.247 38.7813 187.359 37.8631 176.351 39.2403 158.005 41.0766 146.997L44.2905 126.816 85.61 115.808C132.898 103.883 185.236 87.8302 249.511 65.8146 273.843 57.5588 294.962 52.0548 296.34 53.4308 297.717 55.2655 299.094 78.657 299.094 105.259L299.094 154.794 286.698 159.381C279.352 162.133 257.775 168.554 238.033 173.599 218.292 178.645 200.845 183.69 199.468 185.066 198.091 185.983 196.254 198.367 195.336 211.668 194.418 224.969 192.582 240.563 191.204 246.526 189.827 252.03 190.745 256.617 193.5 256.617 195.795 256.617 198.091 252.947 198.55 248.819 199.009 229.556 202.682 214.42 207.273 208.457 212.323 202.495 268.793 187.818 288.076 187.818 298.176 187.818 299.094 189.652 299.094 211.209 299.094 232.766 300.012 234.142 309.654 232.766L319.754 231.39 321.131 124.982C322.05 25.4527 321.59 18.1141 314.245 18.5728 309.654 18.5728 242.165 39.6711 163.658 65.8146L21.335 113.056 18.1215 151.584C13.0713 221.758 13.9895 296.978 20.4169 299.272 31.4354 303.4 37.404 292.392 37.404 267.624ZM527.729 207.54 526.351 112.139 434.53 65.3559C384.029 39.6711 341.332 18.1141 339.036 18.1141 337.2 18.1141 336.282 67.1906 336.741 127.275 338.118 232.308 338.577 235.977 347.3 235.977 358.319 235.977 357.4 241.481 358.319 142.869 358.778 79.1157 360.155 63.0627 365.205 61.228 371.174 58.9347 495.132 117.643 509.365 129.568 513.956 133.237 515.333 152.96 514.874 210.292 513.956 307.986 513.497 302.482 521.76 302.482 527.729 302.482 528.647 290.099 527.729 207.54Z" fill="#02659E" fill-rule="evenodd" transform="matrix(1 0 0 -1 2352 971)"/></g></svg>